<svg width="252" height="299" viewBox="0 0 252 299" fill="none" xmlns="http://www.w3.org/2000/svg">
<rect width="252" height="299" rx="20" fill="#A9FEEE"/>
<path d="M0 20C0 8.95431 8.95431 0 20 0H232C243.046 0 252 8.95431 252 20V186H0V20Z" fill="#D9D9D9"/>
<path d="M71.736 33.28H64.44L63.096 37H60.792L66.84 20.368H69.36L75.384 37H73.08L71.736 33.28ZM71.112 31.504L68.088 23.056L65.064 31.504H71.112ZM80.2039 26.272C80.6359 25.52 81.2759 24.896 82.1239 24.4C82.9879 23.888 83.9879 23.632 85.1239 23.632C86.2919 23.632 87.3479 23.912 88.2919 24.472C89.2519 25.032 90.0039 25.824 90.5479 26.848C91.0919 27.856 91.3639 29.032 91.3639 30.376C91.3639 31.704 91.0919 32.888 90.5479 33.928C90.0039 34.968 89.2519 35.776 88.2919 36.352C87.3479 36.928 86.2919 37.216 85.1239 37.216C84.0039 37.216 83.0119 36.968 82.1479 36.472C81.2999 35.96 80.6519 35.328 80.2039 34.576V43.24H78.0199V23.848H80.2039V26.272ZM89.1319 30.376C89.1319 29.384 88.9319 28.52 88.5319 27.784C88.1319 27.048 87.5879 26.488 86.8999 26.104C86.2279 25.72 85.4839 25.528 84.6679 25.528C83.8679 25.528 83.1239 25.728 82.4359 26.128C81.7639 26.512 81.2199 27.08 80.8039 27.832C80.4039 28.568 80.2039 29.424 80.2039 30.4C80.2039 31.392 80.4039 32.264 80.8039 33.016C81.2199 33.752 81.7639 34.32 82.4359 34.72C83.1239 35.104 83.8679 35.296 84.6679 35.296C85.4839 35.296 86.2279 35.104 86.8999 34.72C87.5879 34.32 88.1319 33.752 88.5319 33.016C88.9319 32.264 89.1319 31.384 89.1319 30.376ZM96.4226 26.272C96.8546 25.52 97.4946 24.896 98.3426 24.4C99.2066 23.888 100.207 23.632 101.343 23.632C102.511 23.632 103.567 23.912 104.511 24.472C105.471 25.032 106.223 25.824 106.767 26.848C107.311 27.856 107.583 29.032 107.583 30.376C107.583 31.704 107.311 32.888 106.767 33.928C106.223 34.968 105.471 35.776 104.511 36.352C103.567 36.928 102.511 37.216 101.343 37.216C100.223 37.216 99.2306 36.968 98.3666 36.472C97.5186 35.96 96.8706 35.328 96.4226 34.576V43.24H94.2386V23.848H96.4226V26.272ZM105.351 30.376C105.351 29.384 105.151 28.52 104.751 27.784C104.351 27.048 103.807 26.488 103.119 26.104C102.447 25.72 101.703 25.528 100.887 25.528C100.087 25.528 99.3426 25.728 98.6546 26.128C97.9826 26.512 97.4386 27.08 97.0226 27.832C96.6226 28.568 96.4226 29.424 96.4226 30.4C96.4226 31.392 96.6226 32.264 97.0226 33.016C97.4386 33.752 97.9826 34.32 98.6546 34.72C99.3426 35.104 100.087 35.296 100.887 35.296C101.703 35.296 102.447 35.104 103.119 34.72C103.807 34.32 104.351 33.752 104.751 33.016C105.151 32.264 105.351 31.384 105.351 30.376ZM112.641 25.984C113.025 25.232 113.569 24.648 114.273 24.232C114.993 23.816 115.865 23.608 116.889 23.608V25.864H116.313C113.865 25.864 112.641 27.192 112.641 29.848V37H110.457V23.848H112.641V25.984ZM131.411 29.92C131.411 30.336 131.387 30.776 131.339 31.24H120.827C120.907 32.536 121.347 33.552 122.147 34.288C122.963 35.008 123.947 35.368 125.099 35.368C126.043 35.368 126.827 35.152 127.451 34.72C128.091 34.272 128.539 33.68 128.795 32.944H131.147C130.795 34.208 130.091 35.24 129.035 36.04C127.979 36.824 126.667 37.216 125.099 37.216C123.851 37.216 122.731 36.936 121.739 36.376C120.763 35.816 119.995 35.024 119.435 34C118.875 32.96 118.595 31.76 118.595 30.4C118.595 29.04 118.867 27.848 119.411 26.824C119.955 25.8 120.715 25.016 121.691 24.472C122.683 23.912 123.819 23.632 125.099 23.632C126.347 23.632 127.451 23.904 128.411 24.448C129.371 24.992 130.107 25.744 130.619 26.704C131.147 27.648 131.411 28.72 131.411 29.92ZM129.155 29.464C129.155 28.632 128.971 27.92 128.603 27.328C128.235 26.72 127.731 26.264 127.091 25.96C126.467 25.64 125.771 25.48 125.003 25.48C123.899 25.48 122.955 25.832 122.171 26.536C121.403 27.24 120.963 28.216 120.851 29.464H129.155ZM140.701 23.608C142.301 23.608 143.597 24.096 144.589 25.072C145.581 26.032 146.077 27.424 146.077 29.248V37H143.917V29.56C143.917 28.248 143.589 27.248 142.933 26.56C142.277 25.856 141.381 25.504 140.245 25.504C139.093 25.504 138.173 25.864 137.485 26.584C136.813 27.304 136.477 28.352 136.477 29.728V37H134.293V23.848H136.477V25.72C136.909 25.048 137.493 24.528 138.229 24.16C138.981 23.792 139.805 23.608 140.701 23.608ZM152.309 25.648V33.4C152.309 34.04 152.445 34.496 152.717 34.768C152.989 35.024 153.461 35.152 154.133 35.152H155.741V37H153.773C152.557 37 151.645 36.72 151.037 36.16C150.429 35.6 150.125 34.68 150.125 33.4V25.648H148.421V23.848H150.125V20.536H152.309V23.848H155.741V25.648H152.309ZM159.515 21.712C159.099 21.712 158.747 21.568 158.459 21.28C158.171 20.992 158.027 20.64 158.027 20.224C158.027 19.808 158.171 19.456 158.459 19.168C158.747 18.88 159.099 18.736 159.515 18.736C159.915 18.736 160.251 18.88 160.523 19.168C160.811 19.456 160.955 19.808 160.955 20.224C160.955 20.64 160.811 20.992 160.523 21.28C160.251 21.568 159.915 21.712 159.515 21.712ZM160.571 23.848V37H158.387V23.848H160.571ZM163.477 30.4C163.477 29.04 163.749 27.856 164.293 26.848C164.837 25.824 165.589 25.032 166.549 24.472C167.525 23.912 168.637 23.632 169.885 23.632C171.501 23.632 172.829 24.024 173.869 24.808C174.925 25.592 175.621 26.68 175.957 28.072H173.605C173.381 27.272 172.941 26.64 172.285 26.176C171.645 25.712 170.845 25.48 169.885 25.48C168.637 25.48 167.629 25.912 166.861 26.776C166.093 27.624 165.709 28.832 165.709 30.4C165.709 31.984 166.093 33.208 166.861 34.072C167.629 34.936 168.637 35.368 169.885 35.368C170.845 35.368 171.645 35.144 172.285 34.696C172.925 34.248 173.365 33.608 173.605 32.776H175.957C175.605 34.12 174.901 35.2 173.845 36.016C172.789 36.816 171.469 37.216 169.885 37.216C168.637 37.216 167.525 36.936 166.549 36.376C165.589 35.816 164.837 35.024 164.293 34C163.749 32.976 163.477 31.776 163.477 30.4ZM190.871 29.92C190.871 30.336 190.847 30.776 190.799 31.24H180.287C180.367 32.536 180.807 33.552 181.607 34.288C182.423 35.008 183.407 35.368 184.559 35.368C185.503 35.368 186.287 35.152 186.911 34.72C187.551 34.272 187.999 33.68 188.255 32.944H190.607C190.255 34.208 189.551 35.24 188.495 36.04C187.439 36.824 186.127 37.216 184.559 37.216C183.311 37.216 182.191 36.936 181.199 36.376C180.223 35.816 179.455 35.024 178.895 34C178.335 32.96 178.055 31.76 178.055 30.4C178.055 29.04 178.327 27.848 178.871 26.824C179.415 25.8 180.175 25.016 181.151 24.472C182.143 23.912 183.279 23.632 184.559 23.632C185.807 23.632 186.911 23.904 187.871 24.448C188.831 24.992 189.567 25.744 190.079 26.704C190.607 27.648 190.871 28.72 190.871 29.92ZM188.615 29.464C188.615 28.632 188.431 27.92 188.063 27.328C187.695 26.72 187.191 26.264 186.551 25.96C185.927 25.64 185.231 25.48 184.463 25.48C183.359 25.48 182.415 25.832 181.631 26.536C180.863 27.24 180.423 28.216 180.311 29.464H188.615Z" fill="black"/>
<path d="M67.032 273.376C67.032 272.032 67.304 270.856 67.848 269.848C68.392 268.824 69.136 268.032 70.08 267.472C71.04 266.912 72.112 266.632 73.296 266.632C74.32 266.632 75.272 266.872 76.152 267.352C77.032 267.816 77.704 268.432 78.168 269.2V262.24H80.376V280H78.168V277.528C77.736 278.312 77.096 278.96 76.248 279.472C75.4 279.968 74.408 280.216 73.272 280.216C72.104 280.216 71.04 279.928 70.08 279.352C69.136 278.776 68.392 277.968 67.848 276.928C67.304 275.888 67.032 274.704 67.032 273.376ZM78.168 273.4C78.168 272.408 77.968 271.544 77.568 270.808C77.168 270.072 76.624 269.512 75.936 269.128C75.264 268.728 74.52 268.528 73.704 268.528C72.888 268.528 72.144 268.72 71.472 269.104C70.8 269.488 70.264 270.048 69.864 270.784C69.464 271.52 69.264 272.384 69.264 273.376C69.264 274.384 69.464 275.264 69.864 276.016C70.264 276.752 70.8 277.32 71.472 277.72C72.144 278.104 72.888 278.296 73.704 278.296C74.52 278.296 75.264 278.104 75.936 277.72C76.624 277.32 77.168 276.752 77.568 276.016C77.968 275.264 78.168 274.392 78.168 273.4ZM96.0668 272.92C96.0668 273.336 96.0428 273.776 95.9948 274.24H85.4828C85.5628 275.536 86.0028 276.552 86.8028 277.288C87.6188 278.008 88.6028 278.368 89.7548 278.368C90.6988 278.368 91.4828 278.152 92.1068 277.72C92.7468 277.272 93.1948 276.68 93.4508 275.944H95.8028C95.4508 277.208 94.7468 278.24 93.6908 279.04C92.6348 279.824 91.3228 280.216 89.7548 280.216C88.5068 280.216 87.3868 279.936 86.3948 279.376C85.4188 278.816 84.6508 278.024 84.0908 277C83.5308 275.96 83.2508 274.76 83.2508 273.4C83.2508 272.04 83.5228 270.848 84.0668 269.824C84.6108 268.8 85.3708 268.016 86.3468 267.472C87.3388 266.912 88.4748 266.632 89.7548 266.632C91.0028 266.632 92.1068 266.904 93.0668 267.448C94.0268 267.992 94.7628 268.744 95.2748 269.704C95.8028 270.648 96.0668 271.72 96.0668 272.92ZM93.8108 272.464C93.8108 271.632 93.6268 270.92 93.2588 270.328C92.8908 269.72 92.3868 269.264 91.7468 268.96C91.1228 268.64 90.4268 268.48 89.6588 268.48C88.5548 268.48 87.6108 268.832 86.8268 269.536C86.0588 270.24 85.6188 271.216 85.5068 272.464H93.8108ZM103.846 277.984L107.926 266.848H110.254L105.094 280H102.55L97.3896 266.848H99.7416L103.846 277.984ZM124.403 272.92C124.403 273.336 124.379 273.776 124.331 274.24H113.819C113.899 275.536 114.339 276.552 115.139 277.288C115.955 278.008 116.939 278.368 118.091 278.368C119.035 278.368 119.819 278.152 120.443 277.72C121.083 277.272 121.531 276.68 121.787 275.944H124.139C123.787 277.208 123.083 278.24 122.027 279.04C120.971 279.824 119.659 280.216 118.091 280.216C116.843 280.216 115.723 279.936 114.731 279.376C113.755 278.816 112.987 278.024 112.427 277C111.867 275.96 111.587 274.76 111.587 273.4C111.587 272.04 111.859 270.848 112.403 269.824C112.947 268.8 113.707 268.016 114.683 267.472C115.675 266.912 116.811 266.632 118.091 266.632C119.339 266.632 120.443 266.904 121.403 267.448C122.363 267.992 123.099 268.744 123.611 269.704C124.139 270.648 124.403 271.72 124.403 272.92ZM122.147 272.464C122.147 271.632 121.963 270.92 121.595 270.328C121.227 269.72 120.723 269.264 120.083 268.96C119.459 268.64 118.763 268.48 117.995 268.48C116.891 268.48 115.947 268.832 115.163 269.536C114.395 270.24 113.955 271.216 113.843 272.464H122.147ZM129.47 262.24V280H127.286V262.24H129.47ZM138.928 280.216C137.696 280.216 136.576 279.936 135.568 279.376C134.576 278.816 133.792 278.024 133.216 277C132.656 275.96 132.376 274.76 132.376 273.4C132.376 272.056 132.664 270.872 133.24 269.848C133.832 268.808 134.632 268.016 135.64 267.472C136.648 266.912 137.776 266.632 139.024 266.632C140.272 266.632 141.4 266.912 142.408 267.472C143.416 268.016 144.208 268.8 144.784 269.824C145.376 270.848 145.672 272.04 145.672 273.4C145.672 274.76 145.368 275.96 144.76 277C144.168 278.024 143.36 278.816 142.336 279.376C141.312 279.936 140.176 280.216 138.928 280.216ZM138.928 278.296C139.712 278.296 140.448 278.112 141.136 277.744C141.824 277.376 142.376 276.824 142.792 276.088C143.224 275.352 143.44 274.456 143.44 273.4C143.44 272.344 143.232 271.448 142.816 270.712C142.4 269.976 141.856 269.432 141.184 269.08C140.512 268.712 139.784 268.528 139 268.528C138.2 268.528 137.464 268.712 136.792 269.08C136.136 269.432 135.608 269.976 135.208 270.712C134.808 271.448 134.608 272.344 134.608 273.4C134.608 274.472 134.8 275.376 135.184 276.112C135.584 276.848 136.112 277.4 136.768 277.768C137.424 278.12 138.144 278.296 138.928 278.296ZM150.727 269.272C151.159 268.52 151.799 267.896 152.647 267.4C153.511 266.888 154.511 266.632 155.647 266.632C156.815 266.632 157.871 266.912 158.815 267.472C159.775 268.032 160.527 268.824 161.071 269.848C161.615 270.856 161.887 272.032 161.887 273.376C161.887 274.704 161.615 275.888 161.071 276.928C160.527 277.968 159.775 278.776 158.815 279.352C157.871 279.928 156.815 280.216 155.647 280.216C154.527 280.216 153.535 279.968 152.671 279.472C151.823 278.96 151.175 278.328 150.727 277.576V286.24H148.543V266.848H150.727V269.272ZM159.655 273.376C159.655 272.384 159.455 271.52 159.055 270.784C158.655 270.048 158.111 269.488 157.423 269.104C156.751 268.72 156.007 268.528 155.191 268.528C154.391 268.528 153.647 268.728 152.959 269.128C152.287 269.512 151.743 270.08 151.327 270.832C150.927 271.568 150.727 272.424 150.727 273.4C150.727 274.392 150.927 275.264 151.327 276.016C151.743 276.752 152.287 277.32 152.959 277.72C153.647 278.104 154.391 278.296 155.191 278.296C156.007 278.296 156.751 278.104 157.423 277.72C158.111 277.32 158.655 276.752 159.055 276.016C159.455 275.264 159.655 274.384 159.655 273.376ZM176.762 272.92C176.762 273.336 176.738 273.776 176.69 274.24H166.178C166.258 275.536 166.698 276.552 167.498 277.288C168.314 278.008 169.298 278.368 170.45 278.368C171.394 278.368 172.178 278.152 172.802 277.72C173.442 277.272 173.89 276.68 174.146 275.944H176.498C176.146 277.208 175.442 278.24 174.386 279.04C173.33 279.824 172.018 280.216 170.45 280.216C169.202 280.216 168.082 279.936 167.09 279.376C166.114 278.816 165.346 278.024 164.786 277C164.226 275.96 163.946 274.76 163.946 273.4C163.946 272.04 164.218 270.848 164.762 269.824C165.306 268.8 166.066 268.016 167.042 267.472C168.034 266.912 169.17 266.632 170.45 266.632C171.698 266.632 172.802 266.904 173.762 267.448C174.722 267.992 175.458 268.744 175.97 269.704C176.498 270.648 176.762 271.72 176.762 272.92ZM174.506 272.464C174.506 271.632 174.322 270.92 173.954 270.328C173.586 269.72 173.082 269.264 172.442 268.96C171.818 268.64 171.122 268.48 170.354 268.48C169.25 268.48 168.306 268.832 167.522 269.536C166.754 270.24 166.314 271.216 166.202 272.464H174.506ZM181.829 268.984C182.213 268.232 182.757 267.648 183.461 267.232C184.181 266.816 185.053 266.608 186.077 266.608V268.864H185.501C183.053 268.864 181.829 270.192 181.829 272.848V280H179.645V266.848H181.829V268.984Z" fill="black"/>
<circle cx="126.5" cy="127.5" r="75.5" stroke="black" stroke-width="4"/>
<path d="M78.5 199.5L70.1251 215.488C69.0085 217.62 70.7302 220.133 73.1214 219.861L87.4619 218.232C88.6907 218.092 89.8793 218.721 90.4554 219.815L97.0362 232.319C98.1214 234.381 101.04 234.472 102.253 232.483L119 205" stroke="black" stroke-width="4" stroke-linecap="round"/>
<path d="M147.5 221.074L157.159 236.321C158.447 238.354 161.484 238.119 162.444 235.913L168.203 222.679C168.696 221.545 169.835 220.83 171.071 220.878L185.19 221.431C187.518 221.522 189.057 219.04 187.94 216.995L172.513 188.75" stroke="black" stroke-width="4" stroke-linecap="round"/>
<path d="M95.3788 97.6554L68.4934 124.974C67.3754 126.11 67.3409 127.922 68.4147 129.1L95.2137 158.492C96.4283 159.825 98.5352 159.792 99.7084 158.424L101.726 156.07C102.732 154.896 102.681 153.15 101.609 152.036L79.562 129.141C78.4201 127.956 78.4471 126.071 79.6223 124.919L101.337 103.621C102.528 102.453 102.538 100.538 101.358 99.358L99.6384 97.6384C98.4602 96.4602 96.5476 96.4678 95.3788 97.6554Z" stroke="black" stroke-width="4" stroke-linecap="round"/>
<path d="M161.121 98.1554L188.007 125.474C189.125 126.61 189.159 128.422 188.085 129.6L161.286 158.992C160.072 160.325 157.965 160.292 156.792 158.924L154.774 156.57C153.768 155.396 153.819 153.65 154.891 152.536L176.938 129.641C178.08 128.456 178.053 126.571 176.878 125.419L155.163 104.121C153.972 102.953 153.962 101.038 155.142 99.858L156.862 98.1384C158.04 96.9602 159.952 96.9678 161.121 98.1554Z" stroke="black" stroke-width="4" stroke-linecap="round"/>
<path d="M142.103 90.1478L139.336 89.334C137.763 88.8714 136.11 89.7571 135.624 91.3229L114.871 158.194C114.387 159.753 115.239 161.413 116.787 161.929L120.07 163.023C121.674 163.558 123.403 162.662 123.891 161.043L144.129 93.8916C144.609 92.2977 143.7 90.6176 142.103 90.1478Z" stroke="black" stroke-width="4" stroke-linecap="round"/>
</svg>
