<svg width="252" height="299" viewBox="0 0 252 299" fill="none" xmlns="http://www.w3.org/2000/svg">
<rect width="252" height="299" rx="20" fill="#D9D9D9"/>
<path fill-rule="evenodd" clip-rule="evenodd" d="M108.703 65C93.2393 65 80.7033 77.5361 80.7033 93V126.491H68C65.2386 126.491 63 128.729 63 131.491V220.291C63 223.052 65.2386 225.291 68 225.291H185C187.761 225.291 190 223.052 190 220.291V131.491C190 128.729 187.761 126.491 185 126.491H173.067V93C173.067 77.536 160.531 65 145.067 65H108.703ZM96.097 126.491H157.673V94.8182C157.673 85.9816 150.509 78.8182 141.673 78.8182H112.097C103.26 78.8182 96.097 85.9816 96.097 94.8182V126.491ZM143.626 165.536C145.579 163.583 145.579 160.417 143.626 158.464C141.674 156.512 138.508 156.512 136.555 158.464L120.163 174.857L112.641 166.864C110.748 164.853 107.584 164.757 105.573 166.65C103.562 168.542 103.466 171.707 105.359 173.718L115.001 183.962C117.707 186.838 122.255 186.907 125.048 184.114L143.626 165.536Z" fill="#999999"/>
<path d="M86.736 33.28H79.44L78.096 37H75.792L81.84 20.368H84.36L90.384 37H88.08L86.736 33.28ZM86.112 31.504L83.088 23.056L80.064 31.504H86.112ZM97.6759 37.216C96.6679 37.216 95.7639 37.048 94.9639 36.712C94.1639 36.36 93.5319 35.88 93.0679 35.272C92.6039 34.648 92.3479 33.936 92.2999 33.136H94.5559C94.6199 33.792 94.9239 34.328 95.4679 34.744C96.0279 35.16 96.7559 35.368 97.6519 35.368C98.4839 35.368 99.1399 35.184 99.6199 34.816C100.1 34.448 100.34 33.984 100.34 33.424C100.34 32.848 100.084 32.424 99.5719 32.152C99.0599 31.864 98.2679 31.584 97.1959 31.312C96.2199 31.056 95.4199 30.8 94.7959 30.544C94.1879 30.272 93.6599 29.88 93.2119 29.368C92.7799 28.84 92.5639 28.152 92.5639 27.304C92.5639 26.632 92.7639 26.016 93.1639 25.456C93.5639 24.896 94.1319 24.456 94.8679 24.136C95.6039 23.8 96.4439 23.632 97.3879 23.632C98.8439 23.632 100.02 24 100.916 24.736C101.812 25.472 102.292 26.48 102.356 27.76H100.172C100.124 27.072 99.8439 26.52 99.3319 26.104C98.8359 25.688 98.1639 25.48 97.3159 25.48C96.5319 25.48 95.9079 25.648 95.4439 25.984C94.9799 26.32 94.7479 26.76 94.7479 27.304C94.7479 27.736 94.8839 28.096 95.1559 28.384C95.4439 28.656 95.7959 28.88 96.2119 29.056C96.6439 29.216 97.2359 29.4 97.9879 29.608C98.9319 29.864 99.6999 30.12 100.292 30.376C100.884 30.616 101.388 30.984 101.804 31.48C102.236 31.976 102.46 32.624 102.476 33.424C102.476 34.144 102.276 34.792 101.876 35.368C101.476 35.944 100.908 36.4 100.172 36.736C99.4519 37.056 98.6199 37.216 97.6759 37.216ZM110.215 37.216C109.207 37.216 108.303 37.048 107.503 36.712C106.703 36.36 106.071 35.88 105.607 35.272C105.143 34.648 104.887 33.936 104.839 33.136H107.095C107.159 33.792 107.463 34.328 108.007 34.744C108.567 35.16 109.295 35.368 110.191 35.368C111.023 35.368 111.679 35.184 112.159 34.816C112.639 34.448 112.879 33.984 112.879 33.424C112.879 32.848 112.623 32.424 112.111 32.152C111.599 31.864 110.807 31.584 109.735 31.312C108.759 31.056 107.959 30.8 107.335 30.544C106.727 30.272 106.199 29.88 105.751 29.368C105.319 28.84 105.103 28.152 105.103 27.304C105.103 26.632 105.303 26.016 105.703 25.456C106.103 24.896 106.671 24.456 107.407 24.136C108.143 23.8 108.983 23.632 109.927 23.632C111.383 23.632 112.559 24 113.455 24.736C114.351 25.472 114.831 26.48 114.895 27.76H112.711C112.663 27.072 112.383 26.52 111.871 26.104C111.375 25.688 110.703 25.48 109.855 25.48C109.071 25.48 108.447 25.648 107.983 25.984C107.519 26.32 107.287 26.76 107.287 27.304C107.287 27.736 107.423 28.096 107.695 28.384C107.983 28.656 108.335 28.88 108.751 29.056C109.183 29.216 109.775 29.4 110.527 29.608C111.471 29.864 112.239 30.12 112.831 30.376C113.423 30.616 113.927 30.984 114.343 31.48C114.775 31.976 114.999 32.624 115.015 33.424C115.015 34.144 114.815 34.792 114.415 35.368C114.015 35.944 113.447 36.4 112.711 36.736C111.991 37.056 111.159 37.216 110.215 37.216ZM119.226 21.712C118.81 21.712 118.458 21.568 118.17 21.28C117.882 20.992 117.738 20.64 117.738 20.224C117.738 19.808 117.882 19.456 118.17 19.168C118.458 18.88 118.81 18.736 119.226 18.736C119.626 18.736 119.962 18.88 120.234 19.168C120.522 19.456 120.666 19.808 120.666 20.224C120.666 20.64 120.522 20.992 120.234 21.28C119.962 21.568 119.626 21.712 119.226 21.712ZM120.282 23.848V37H118.098V23.848H120.282ZM128.66 37.216C127.652 37.216 126.748 37.048 125.948 36.712C125.148 36.36 124.516 35.88 124.052 35.272C123.588 34.648 123.332 33.936 123.284 33.136H125.54C125.604 33.792 125.908 34.328 126.452 34.744C127.012 35.16 127.74 35.368 128.636 35.368C129.468 35.368 130.124 35.184 130.604 34.816C131.084 34.448 131.324 33.984 131.324 33.424C131.324 32.848 131.068 32.424 130.556 32.152C130.044 31.864 129.252 31.584 128.18 31.312C127.204 31.056 126.404 30.8 125.78 30.544C125.172 30.272 124.644 29.88 124.196 29.368C123.764 28.84 123.548 28.152 123.548 27.304C123.548 26.632 123.748 26.016 124.148 25.456C124.548 24.896 125.116 24.456 125.852 24.136C126.588 23.8 127.428 23.632 128.372 23.632C129.828 23.632 131.004 24 131.9 24.736C132.796 25.472 133.276 26.48 133.34 27.76H131.156C131.108 27.072 130.828 26.52 130.316 26.104C129.82 25.688 129.148 25.48 128.3 25.48C127.516 25.48 126.892 25.648 126.428 25.984C125.964 26.32 125.732 26.76 125.732 27.304C125.732 27.736 125.868 28.096 126.14 28.384C126.428 28.656 126.78 28.88 127.196 29.056C127.628 29.216 128.22 29.4 128.972 29.608C129.916 29.864 130.684 30.12 131.276 30.376C131.868 30.616 132.372 30.984 132.788 31.48C133.22 31.976 133.444 32.624 133.46 33.424C133.46 34.144 133.26 34.792 132.86 35.368C132.46 35.944 131.892 36.4 131.156 36.736C130.436 37.056 129.604 37.216 128.66 37.216ZM139.207 25.648V33.4C139.207 34.04 139.343 34.496 139.615 34.768C139.887 35.024 140.359 35.152 141.031 35.152H142.639V37H140.671C139.455 37 138.543 36.72 137.935 36.16C137.327 35.6 137.023 34.68 137.023 33.4V25.648H135.319V23.848H137.023V20.536H139.207V23.848H142.639V25.648H139.207ZM144.47 30.376C144.47 29.032 144.742 27.856 145.286 26.848C145.83 25.824 146.574 25.032 147.518 24.472C148.478 23.912 149.542 23.632 150.71 23.632C151.862 23.632 152.862 23.88 153.71 24.376C154.558 24.872 155.19 25.496 155.606 26.248V23.848H157.814V37H155.606V34.552C155.174 35.32 154.526 35.96 153.662 36.472C152.814 36.968 151.822 37.216 150.686 37.216C149.518 37.216 148.462 36.928 147.518 36.352C146.574 35.776 145.83 34.968 145.286 33.928C144.742 32.888 144.47 31.704 144.47 30.376ZM155.606 30.4C155.606 29.408 155.406 28.544 155.006 27.808C154.606 27.072 154.062 26.512 153.374 26.128C152.702 25.728 151.958 25.528 151.142 25.528C150.326 25.528 149.582 25.72 148.91 26.104C148.238 26.488 147.702 27.048 147.302 27.784C146.902 28.52 146.702 29.384 146.702 30.376C146.702 31.384 146.902 32.264 147.302 33.016C147.702 33.752 148.238 34.32 148.91 34.72C149.582 35.104 150.326 35.296 151.142 35.296C151.958 35.296 152.702 35.104 153.374 34.72C154.062 34.32 154.606 33.752 155.006 33.016C155.406 32.264 155.606 31.392 155.606 30.4ZM167.912 23.608C169.512 23.608 170.808 24.096 171.8 25.072C172.792 26.032 173.288 27.424 173.288 29.248V37H171.128V29.56C171.128 28.248 170.8 27.248 170.144 26.56C169.488 25.856 168.592 25.504 167.456 25.504C166.304 25.504 165.384 25.864 164.696 26.584C164.024 27.304 163.688 28.352 163.688 29.728V37H161.504V23.848H163.688V25.72C164.12 25.048 164.704 24.528 165.44 24.16C166.192 23.792 167.016 23.608 167.912 23.608ZM179.52 25.648V33.4C179.52 34.04 179.656 34.496 179.928 34.768C180.2 35.024 180.672 35.152 181.344 35.152H182.952V37H180.984C179.768 37 178.856 36.72 178.248 36.16C177.64 35.6 177.336 34.68 177.336 33.4V25.648H175.632V23.848H177.336V20.536H179.52V23.848H182.952V25.648H179.52Z" fill="black"/>
<path d="M70.032 273.376C70.032 272.032 70.304 270.856 70.848 269.848C71.392 268.824 72.136 268.032 73.08 267.472C74.04 266.912 75.112 266.632 76.296 266.632C77.32 266.632 78.272 266.872 79.152 267.352C80.032 267.816 80.704 268.432 81.168 269.2V262.24H83.376V280H81.168V277.528C80.736 278.312 80.096 278.96 79.248 279.472C78.4 279.968 77.408 280.216 76.272 280.216C75.104 280.216 74.04 279.928 73.08 279.352C72.136 278.776 71.392 277.968 70.848 276.928C70.304 275.888 70.032 274.704 70.032 273.376ZM81.168 273.4C81.168 272.408 80.968 271.544 80.568 270.808C80.168 270.072 79.624 269.512 78.936 269.128C78.264 268.728 77.52 268.528 76.704 268.528C75.888 268.528 75.144 268.72 74.472 269.104C73.8 269.488 73.264 270.048 72.864 270.784C72.464 271.52 72.264 272.384 72.264 273.376C72.264 274.384 72.464 275.264 72.864 276.016C73.264 276.752 73.8 277.32 74.472 277.72C75.144 278.104 75.888 278.296 76.704 278.296C77.52 278.296 78.264 278.104 78.936 277.72C79.624 277.32 80.168 276.752 80.568 276.016C80.968 275.264 81.168 274.392 81.168 273.4ZM99.0668 272.92C99.0668 273.336 99.0428 273.776 98.9948 274.24H88.4828C88.5628 275.536 89.0028 276.552 89.8028 277.288C90.6188 278.008 91.6028 278.368 92.7548 278.368C93.6988 278.368 94.4828 278.152 95.1068 277.72C95.7468 277.272 96.1948 276.68 96.4508 275.944H98.8028C98.4508 277.208 97.7468 278.24 96.6908 279.04C95.6348 279.824 94.3228 280.216 92.7548 280.216C91.5068 280.216 90.3868 279.936 89.3948 279.376C88.4188 278.816 87.6508 278.024 87.0908 277C86.5308 275.96 86.2508 274.76 86.2508 273.4C86.2508 272.04 86.5228 270.848 87.0668 269.824C87.6108 268.8 88.3708 268.016 89.3468 267.472C90.3388 266.912 91.4748 266.632 92.7548 266.632C94.0028 266.632 95.1068 266.904 96.0668 267.448C97.0268 267.992 97.7628 268.744 98.2748 269.704C98.8028 270.648 99.0668 271.72 99.0668 272.92ZM96.8108 272.464C96.8108 271.632 96.6268 270.92 96.2588 270.328C95.8908 269.72 95.3868 269.264 94.7468 268.96C94.1228 268.64 93.4268 268.48 92.6588 268.48C91.5548 268.48 90.6108 268.832 89.8268 269.536C89.0588 270.24 88.6188 271.216 88.5068 272.464H96.8108ZM106.846 277.984L110.926 266.848H113.254L108.094 280H105.55L100.39 266.848H102.742L106.846 277.984ZM127.403 272.92C127.403 273.336 127.379 273.776 127.331 274.24H116.819C116.899 275.536 117.339 276.552 118.139 277.288C118.955 278.008 119.939 278.368 121.091 278.368C122.035 278.368 122.819 278.152 123.443 277.72C124.083 277.272 124.531 276.68 124.787 275.944H127.139C126.787 277.208 126.083 278.24 125.027 279.04C123.971 279.824 122.659 280.216 121.091 280.216C119.843 280.216 118.723 279.936 117.731 279.376C116.755 278.816 115.987 278.024 115.427 277C114.867 275.96 114.587 274.76 114.587 273.4C114.587 272.04 114.859 270.848 115.403 269.824C115.947 268.8 116.707 268.016 117.683 267.472C118.675 266.912 119.811 266.632 121.091 266.632C122.339 266.632 123.443 266.904 124.403 267.448C125.363 267.992 126.099 268.744 126.611 269.704C127.139 270.648 127.403 271.72 127.403 272.92ZM125.147 272.464C125.147 271.632 124.963 270.92 124.595 270.328C124.227 269.72 123.723 269.264 123.083 268.96C122.459 268.64 121.763 268.48 120.995 268.48C119.891 268.48 118.947 268.832 118.163 269.536C117.395 270.24 116.955 271.216 116.843 272.464H125.147ZM132.47 262.24V280H130.286V262.24H132.47ZM141.928 280.216C140.696 280.216 139.576 279.936 138.568 279.376C137.576 278.816 136.792 278.024 136.216 277C135.656 275.96 135.376 274.76 135.376 273.4C135.376 272.056 135.664 270.872 136.24 269.848C136.832 268.808 137.632 268.016 138.64 267.472C139.648 266.912 140.776 266.632 142.024 266.632C143.272 266.632 144.4 266.912 145.408 267.472C146.416 268.016 147.208 268.8 147.784 269.824C148.376 270.848 148.672 272.04 148.672 273.4C148.672 274.76 148.368 275.96 147.76 277C147.168 278.024 146.36 278.816 145.336 279.376C144.312 279.936 143.176 280.216 141.928 280.216ZM141.928 278.296C142.712 278.296 143.448 278.112 144.136 277.744C144.824 277.376 145.376 276.824 145.792 276.088C146.224 275.352 146.44 274.456 146.44 273.4C146.44 272.344 146.232 271.448 145.816 270.712C145.4 269.976 144.856 269.432 144.184 269.08C143.512 268.712 142.784 268.528 142 268.528C141.2 268.528 140.464 268.712 139.792 269.08C139.136 269.432 138.608 269.976 138.208 270.712C137.808 271.448 137.608 272.344 137.608 273.4C137.608 274.472 137.8 275.376 138.184 276.112C138.584 276.848 139.112 277.4 139.768 277.768C140.424 278.12 141.144 278.296 141.928 278.296ZM153.727 269.272C154.159 268.52 154.799 267.896 155.647 267.4C156.511 266.888 157.511 266.632 158.647 266.632C159.815 266.632 160.871 266.912 161.815 267.472C162.775 268.032 163.527 268.824 164.071 269.848C164.615 270.856 164.887 272.032 164.887 273.376C164.887 274.704 164.615 275.888 164.071 276.928C163.527 277.968 162.775 278.776 161.815 279.352C160.871 279.928 159.815 280.216 158.647 280.216C157.527 280.216 156.535 279.968 155.671 279.472C154.823 278.96 154.175 278.328 153.727 277.576V286.24H151.543V266.848H153.727V269.272ZM162.655 273.376C162.655 272.384 162.455 271.52 162.055 270.784C161.655 270.048 161.111 269.488 160.423 269.104C159.751 268.72 159.007 268.528 158.191 268.528C157.391 268.528 156.647 268.728 155.959 269.128C155.287 269.512 154.743 270.08 154.327 270.832C153.927 271.568 153.727 272.424 153.727 273.4C153.727 274.392 153.927 275.264 154.327 276.016C154.743 276.752 155.287 277.32 155.959 277.72C156.647 278.104 157.391 278.296 158.191 278.296C159.007 278.296 159.751 278.104 160.423 277.72C161.111 277.32 161.655 276.752 162.055 276.016C162.455 275.264 162.655 274.384 162.655 273.376ZM179.762 272.92C179.762 273.336 179.738 273.776 179.69 274.24H169.178C169.258 275.536 169.698 276.552 170.498 277.288C171.314 278.008 172.298 278.368 173.45 278.368C174.394 278.368 175.178 278.152 175.802 277.72C176.442 277.272 176.89 276.68 177.146 275.944H179.498C179.146 277.208 178.442 278.24 177.386 279.04C176.33 279.824 175.018 280.216 173.45 280.216C172.202 280.216 171.082 279.936 170.09 279.376C169.114 278.816 168.346 278.024 167.786 277C167.226 275.96 166.946 274.76 166.946 273.4C166.946 272.04 167.218 270.848 167.762 269.824C168.306 268.8 169.066 268.016 170.042 267.472C171.034 266.912 172.17 266.632 173.45 266.632C174.698 266.632 175.802 266.904 176.762 267.448C177.722 267.992 178.458 268.744 178.97 269.704C179.498 270.648 179.762 271.72 179.762 272.92ZM177.506 272.464C177.506 271.632 177.322 270.92 176.954 270.328C176.586 269.72 176.082 269.264 175.442 268.96C174.818 268.64 174.122 268.48 173.354 268.48C172.25 268.48 171.306 268.832 170.522 269.536C169.754 270.24 169.314 271.216 169.202 272.464H177.506ZM184.829 268.984C185.213 268.232 185.757 267.648 186.461 267.232C187.181 266.816 188.053 266.608 189.077 266.608V268.864H188.501C186.053 268.864 184.829 270.192 184.829 272.848V280H182.645V266.848H184.829V268.984Z" fill="black"/>
</svg>
