<svg width="252" height="299" viewBox="0 0 252 299" fill="none" xmlns="http://www.w3.org/2000/svg">
<rect width="252" height="299" rx="20" fill="#DCF900"/>
<path d="M85.224 28.384C85.832 28.48 86.384 28.728 86.88 29.128C87.392 29.528 87.792 30.024 88.08 30.616C88.384 31.208 88.536 31.84 88.536 32.512C88.536 33.36 88.32 34.128 87.888 34.816C87.456 35.488 86.824 36.024 85.992 36.424C85.176 36.808 84.208 37 83.088 37H76.848V20.272H82.848C83.984 20.272 84.952 20.464 85.752 20.848C86.552 21.216 87.152 21.72 87.552 22.36C87.952 23 88.152 23.72 88.152 24.52C88.152 25.512 87.88 26.336 87.336 26.992C86.808 27.632 86.104 28.096 85.224 28.384ZM79.032 27.496H82.704C83.728 27.496 84.52 27.256 85.08 26.776C85.64 26.296 85.92 25.632 85.92 24.784C85.92 23.936 85.64 23.272 85.08 22.792C84.52 22.312 83.712 22.072 82.656 22.072H79.032V27.496ZM82.896 35.2C83.984 35.2 84.832 34.944 85.44 34.432C86.048 33.92 86.352 33.208 86.352 32.296C86.352 31.368 86.032 30.64 85.392 30.112C84.752 29.568 83.896 29.296 82.824 29.296H79.032V35.2H82.896ZM103.567 29.92C103.567 30.336 103.543 30.776 103.495 31.24H92.9828C93.0628 32.536 93.5028 33.552 94.3028 34.288C95.1188 35.008 96.1028 35.368 97.2548 35.368C98.1988 35.368 98.9828 35.152 99.6068 34.72C100.247 34.272 100.695 33.68 100.951 32.944H103.303C102.951 34.208 102.247 35.24 101.191 36.04C100.135 36.824 98.8228 37.216 97.2548 37.216C96.0068 37.216 94.8868 36.936 93.8948 36.376C92.9188 35.816 92.1508 35.024 91.5908 34C91.0308 32.96 90.7508 31.76 90.7508 30.4C90.7508 29.04 91.0228 27.848 91.5668 26.824C92.1108 25.8 92.8708 25.016 93.8468 24.472C94.8388 23.912 95.9748 23.632 97.2548 23.632C98.5028 23.632 99.6068 23.904 100.567 24.448C101.527 24.992 102.263 25.744 102.775 26.704C103.303 27.648 103.567 28.72 103.567 29.92ZM101.311 29.464C101.311 28.632 101.127 27.92 100.759 27.328C100.391 26.72 99.8868 26.264 99.2468 25.96C98.6228 25.64 97.9268 25.48 97.1588 25.48C96.0548 25.48 95.1108 25.832 94.3268 26.536C93.5588 27.24 93.1188 28.216 93.0068 29.464H101.311ZM111.874 23.632C113.01 23.632 114.002 23.88 114.85 24.376C115.714 24.872 116.354 25.496 116.77 26.248V23.848H118.978V37.288C118.978 38.488 118.722 39.552 118.21 40.48C117.698 41.424 116.962 42.16 116.002 42.688C115.058 43.216 113.954 43.48 112.69 43.48C110.962 43.48 109.522 43.072 108.37 42.256C107.218 41.44 106.538 40.328 106.33 38.92H108.49C108.73 39.72 109.226 40.36 109.978 40.84C110.73 41.336 111.634 41.584 112.69 41.584C113.89 41.584 114.866 41.208 115.618 40.456C116.386 39.704 116.77 38.648 116.77 37.288V34.528C116.338 35.296 115.698 35.936 114.85 36.448C114.002 36.96 113.01 37.216 111.874 37.216C110.706 37.216 109.642 36.928 108.682 36.352C107.738 35.776 106.994 34.968 106.45 33.928C105.906 32.888 105.634 31.704 105.634 30.376C105.634 29.032 105.906 27.856 106.45 26.848C106.994 25.824 107.738 25.032 108.682 24.472C109.642 23.912 110.706 23.632 111.874 23.632ZM116.77 30.4C116.77 29.408 116.57 28.544 116.17 27.808C115.77 27.072 115.226 26.512 114.538 26.128C113.866 25.728 113.122 25.528 112.306 25.528C111.49 25.528 110.746 25.72 110.074 26.104C109.402 26.488 108.866 27.048 108.466 27.784C108.066 28.52 107.866 29.384 107.866 30.376C107.866 31.384 108.066 32.264 108.466 33.016C108.866 33.752 109.402 34.32 110.074 34.72C110.746 35.104 111.49 35.296 112.306 35.296C113.122 35.296 113.866 35.104 114.538 34.72C115.226 34.32 115.77 33.752 116.17 33.016C116.57 32.264 116.77 31.392 116.77 30.4ZM123.796 21.712C123.38 21.712 123.028 21.568 122.74 21.28C122.452 20.992 122.308 20.64 122.308 20.224C122.308 19.808 122.452 19.456 122.74 19.168C123.028 18.88 123.38 18.736 123.796 18.736C124.196 18.736 124.532 18.88 124.804 19.168C125.092 19.456 125.236 19.808 125.236 20.224C125.236 20.64 125.092 20.992 124.804 21.28C124.532 21.568 124.196 21.712 123.796 21.712ZM124.852 23.848V37H122.668V23.848H124.852ZM134.983 23.608C136.583 23.608 137.879 24.096 138.871 25.072C139.863 26.032 140.359 27.424 140.359 29.248V37H138.199V29.56C138.199 28.248 137.871 27.248 137.215 26.56C136.559 25.856 135.663 25.504 134.527 25.504C133.375 25.504 132.455 25.864 131.767 26.584C131.095 27.304 130.759 28.352 130.759 29.728V37H128.575V23.848H130.759V25.72C131.191 25.048 131.775 24.528 132.511 24.16C133.263 23.792 134.087 23.608 134.983 23.608ZM150.334 23.608C151.934 23.608 153.23 24.096 154.222 25.072C155.214 26.032 155.71 27.424 155.71 29.248V37H153.55V29.56C153.55 28.248 153.222 27.248 152.566 26.56C151.91 25.856 151.014 25.504 149.878 25.504C148.726 25.504 147.806 25.864 147.118 26.584C146.446 27.304 146.11 28.352 146.11 29.728V37H143.926V23.848H146.11V25.72C146.542 25.048 147.126 24.528 147.862 24.16C148.614 23.792 149.438 23.608 150.334 23.608ZM171.278 29.92C171.278 30.336 171.254 30.776 171.206 31.24H160.694C160.774 32.536 161.214 33.552 162.014 34.288C162.83 35.008 163.814 35.368 164.966 35.368C165.91 35.368 166.694 35.152 167.318 34.72C167.958 34.272 168.406 33.68 168.662 32.944H171.014C170.662 34.208 169.958 35.24 168.902 36.04C167.846 36.824 166.534 37.216 164.966 37.216C163.718 37.216 162.598 36.936 161.606 36.376C160.63 35.816 159.862 35.024 159.302 34C158.742 32.96 158.462 31.76 158.462 30.4C158.462 29.04 158.734 27.848 159.278 26.824C159.822 25.8 160.582 25.016 161.558 24.472C162.55 23.912 163.686 23.632 164.966 23.632C166.214 23.632 167.318 23.904 168.278 24.448C169.238 24.992 169.974 25.744 170.486 26.704C171.014 27.648 171.278 28.72 171.278 29.92ZM169.022 29.464C169.022 28.632 168.838 27.92 168.47 27.328C168.102 26.72 167.598 26.264 166.958 25.96C166.334 25.64 165.638 25.48 164.87 25.48C163.766 25.48 162.822 25.832 162.038 26.536C161.27 27.24 160.83 28.216 160.718 29.464H169.022ZM176.345 25.984C176.729 25.232 177.273 24.648 177.977 24.232C178.697 23.816 179.569 23.608 180.593 23.608V25.864H180.017C177.569 25.864 176.345 27.192 176.345 29.848V37H174.161V23.848H176.345V25.984Z" fill="black"/>
<path d="M70.032 273.376C70.032 272.032 70.304 270.856 70.848 269.848C71.392 268.824 72.136 268.032 73.08 267.472C74.04 266.912 75.112 266.632 76.296 266.632C77.32 266.632 78.272 266.872 79.152 267.352C80.032 267.816 80.704 268.432 81.168 269.2V262.24H83.376V280H81.168V277.528C80.736 278.312 80.096 278.96 79.248 279.472C78.4 279.968 77.408 280.216 76.272 280.216C75.104 280.216 74.04 279.928 73.08 279.352C72.136 278.776 71.392 277.968 70.848 276.928C70.304 275.888 70.032 274.704 70.032 273.376ZM81.168 273.4C81.168 272.408 80.968 271.544 80.568 270.808C80.168 270.072 79.624 269.512 78.936 269.128C78.264 268.728 77.52 268.528 76.704 268.528C75.888 268.528 75.144 268.72 74.472 269.104C73.8 269.488 73.264 270.048 72.864 270.784C72.464 271.52 72.264 272.384 72.264 273.376C72.264 274.384 72.464 275.264 72.864 276.016C73.264 276.752 73.8 277.32 74.472 277.72C75.144 278.104 75.888 278.296 76.704 278.296C77.52 278.296 78.264 278.104 78.936 277.72C79.624 277.32 80.168 276.752 80.568 276.016C80.968 275.264 81.168 274.392 81.168 273.4ZM99.0668 272.92C99.0668 273.336 99.0428 273.776 98.9948 274.24H88.4828C88.5628 275.536 89.0028 276.552 89.8028 277.288C90.6188 278.008 91.6028 278.368 92.7548 278.368C93.6988 278.368 94.4828 278.152 95.1068 277.72C95.7468 277.272 96.1948 276.68 96.4508 275.944H98.8028C98.4508 277.208 97.7468 278.24 96.6908 279.04C95.6348 279.824 94.3228 280.216 92.7548 280.216C91.5068 280.216 90.3868 279.936 89.3948 279.376C88.4188 278.816 87.6508 278.024 87.0908 277C86.5308 275.96 86.2508 274.76 86.2508 273.4C86.2508 272.04 86.5228 270.848 87.0668 269.824C87.6108 268.8 88.3708 268.016 89.3468 267.472C90.3388 266.912 91.4748 266.632 92.7548 266.632C94.0028 266.632 95.1068 266.904 96.0668 267.448C97.0268 267.992 97.7628 268.744 98.2748 269.704C98.8028 270.648 99.0668 271.72 99.0668 272.92ZM96.8108 272.464C96.8108 271.632 96.6268 270.92 96.2588 270.328C95.8908 269.72 95.3868 269.264 94.7468 268.96C94.1228 268.64 93.4268 268.48 92.6588 268.48C91.5548 268.48 90.6108 268.832 89.8268 269.536C89.0588 270.24 88.6188 271.216 88.5068 272.464H96.8108ZM106.846 277.984L110.926 266.848H113.254L108.094 280H105.55L100.39 266.848H102.742L106.846 277.984ZM127.403 272.92C127.403 273.336 127.379 273.776 127.331 274.24H116.819C116.899 275.536 117.339 276.552 118.139 277.288C118.955 278.008 119.939 278.368 121.091 278.368C122.035 278.368 122.819 278.152 123.443 277.72C124.083 277.272 124.531 276.68 124.787 275.944H127.139C126.787 277.208 126.083 278.24 125.027 279.04C123.971 279.824 122.659 280.216 121.091 280.216C119.843 280.216 118.723 279.936 117.731 279.376C116.755 278.816 115.987 278.024 115.427 277C114.867 275.96 114.587 274.76 114.587 273.4C114.587 272.04 114.859 270.848 115.403 269.824C115.947 268.8 116.707 268.016 117.683 267.472C118.675 266.912 119.811 266.632 121.091 266.632C122.339 266.632 123.443 266.904 124.403 267.448C125.363 267.992 126.099 268.744 126.611 269.704C127.139 270.648 127.403 271.72 127.403 272.92ZM125.147 272.464C125.147 271.632 124.963 270.92 124.595 270.328C124.227 269.72 123.723 269.264 123.083 268.96C122.459 268.64 121.763 268.48 120.995 268.48C119.891 268.48 118.947 268.832 118.163 269.536C117.395 270.24 116.955 271.216 116.843 272.464H125.147ZM132.47 262.24V280H130.286V262.24H132.47ZM141.928 280.216C140.696 280.216 139.576 279.936 138.568 279.376C137.576 278.816 136.792 278.024 136.216 277C135.656 275.96 135.376 274.76 135.376 273.4C135.376 272.056 135.664 270.872 136.24 269.848C136.832 268.808 137.632 268.016 138.64 267.472C139.648 266.912 140.776 266.632 142.024 266.632C143.272 266.632 144.4 266.912 145.408 267.472C146.416 268.016 147.208 268.8 147.784 269.824C148.376 270.848 148.672 272.04 148.672 273.4C148.672 274.76 148.368 275.96 147.76 277C147.168 278.024 146.36 278.816 145.336 279.376C144.312 279.936 143.176 280.216 141.928 280.216ZM141.928 278.296C142.712 278.296 143.448 278.112 144.136 277.744C144.824 277.376 145.376 276.824 145.792 276.088C146.224 275.352 146.44 274.456 146.44 273.4C146.44 272.344 146.232 271.448 145.816 270.712C145.4 269.976 144.856 269.432 144.184 269.08C143.512 268.712 142.784 268.528 142 268.528C141.2 268.528 140.464 268.712 139.792 269.08C139.136 269.432 138.608 269.976 138.208 270.712C137.808 271.448 137.608 272.344 137.608 273.4C137.608 274.472 137.8 275.376 138.184 276.112C138.584 276.848 139.112 277.4 139.768 277.768C140.424 278.12 141.144 278.296 141.928 278.296ZM153.727 269.272C154.159 268.52 154.799 267.896 155.647 267.4C156.511 266.888 157.511 266.632 158.647 266.632C159.815 266.632 160.871 266.912 161.815 267.472C162.775 268.032 163.527 268.824 164.071 269.848C164.615 270.856 164.887 272.032 164.887 273.376C164.887 274.704 164.615 275.888 164.071 276.928C163.527 277.968 162.775 278.776 161.815 279.352C160.871 279.928 159.815 280.216 158.647 280.216C157.527 280.216 156.535 279.968 155.671 279.472C154.823 278.96 154.175 278.328 153.727 277.576V286.24H151.543V266.848H153.727V269.272ZM162.655 273.376C162.655 272.384 162.455 271.52 162.055 270.784C161.655 270.048 161.111 269.488 160.423 269.104C159.751 268.72 159.007 268.528 158.191 268.528C157.391 268.528 156.647 268.728 155.959 269.128C155.287 269.512 154.743 270.08 154.327 270.832C153.927 271.568 153.727 272.424 153.727 273.4C153.727 274.392 153.927 275.264 154.327 276.016C154.743 276.752 155.287 277.32 155.959 277.72C156.647 278.104 157.391 278.296 158.191 278.296C159.007 278.296 159.751 278.104 160.423 277.72C161.111 277.32 161.655 276.752 162.055 276.016C162.455 275.264 162.655 274.384 162.655 273.376ZM179.762 272.92C179.762 273.336 179.738 273.776 179.69 274.24H169.178C169.258 275.536 169.698 276.552 170.498 277.288C171.314 278.008 172.298 278.368 173.45 278.368C174.394 278.368 175.178 278.152 175.802 277.72C176.442 277.272 176.89 276.68 177.146 275.944H179.498C179.146 277.208 178.442 278.24 177.386 279.04C176.33 279.824 175.018 280.216 173.45 280.216C172.202 280.216 171.082 279.936 170.09 279.376C169.114 278.816 168.346 278.024 167.786 277C167.226 275.96 166.946 274.76 166.946 273.4C166.946 272.04 167.218 270.848 167.762 269.824C168.306 268.8 169.066 268.016 170.042 267.472C171.034 266.912 172.17 266.632 173.45 266.632C174.698 266.632 175.802 266.904 176.762 267.448C177.722 267.992 178.458 268.744 178.97 269.704C179.498 270.648 179.762 271.72 179.762 272.92ZM177.506 272.464C177.506 271.632 177.322 270.92 176.954 270.328C176.586 269.72 176.082 269.264 175.442 268.96C174.818 268.64 174.122 268.48 173.354 268.48C172.25 268.48 171.306 268.832 170.522 269.536C169.754 270.24 169.314 271.216 169.202 272.464H177.506ZM184.829 268.984C185.213 268.232 185.757 267.648 186.461 267.232C187.181 266.816 188.053 266.608 189.077 266.608V268.864H188.501C186.053 268.864 184.829 270.192 184.829 272.848V280H182.645V266.848H184.829V268.984Z" fill="black"/>
<circle cx="125.5" cy="127.5" r="75.5" stroke="#1D1D1D" stroke-width="4"/>
<path d="M77.5 199.5L69.1251 215.488C68.0085 217.62 69.7302 220.133 72.1214 219.861L86.4619 218.232C87.6907 218.092 88.8793 218.721 89.4554 219.815L96.0362 232.319C97.1214 234.381 100.04 234.472 101.253 232.483L118 205" stroke="#1D1D1D" stroke-width="4" stroke-linecap="round"/>
<path d="M146.5 221.074L156.159 236.321C157.447 238.354 160.484 238.119 161.444 235.913L167.203 222.679C167.696 221.545 168.835 220.83 170.071 220.878L184.19 221.431C186.518 221.522 188.057 219.04 186.94 216.995L171.513 188.75" stroke="#1D1D1D" stroke-width="4" stroke-linecap="round"/>
<path d="M94.3788 97.6554L67.4934 124.974C66.3754 126.11 66.3409 127.922 67.4147 129.1L94.2137 158.492C95.4283 159.825 97.5352 159.792 98.7084 158.424L100.726 156.07C101.732 154.896 101.681 153.15 100.609 152.036L78.562 129.141C77.4201 127.956 77.4471 126.071 78.6223 124.919L100.337 103.621C101.528 102.453 101.538 100.538 100.358 99.358L98.6384 97.6384C97.4602 96.4602 95.5476 96.4678 94.3788 97.6554Z" stroke="#1D1D1D" stroke-width="4" stroke-linecap="round"/>
<path d="M160.121 98.1554L187.007 125.474C188.125 126.61 188.159 128.422 187.085 129.6L160.286 158.992C159.072 160.325 156.965 160.292 155.792 158.924L153.774 156.57C152.768 155.396 152.819 153.65 153.891 152.536L175.938 129.641C177.08 128.456 177.053 126.571 175.878 125.419L154.163 104.121C152.972 102.953 152.962 101.038 154.142 99.858L155.862 98.1384C157.04 96.9602 158.952 96.9678 160.121 98.1554Z" stroke="#1D1D1D" stroke-width="4" stroke-linecap="round"/>
<path d="M141.103 90.1478L138.336 89.334C136.763 88.8714 135.11 89.7571 134.624 91.3229L113.871 158.194C113.387 159.753 114.239 161.413 115.787 161.929L119.07 163.023C120.674 163.558 122.403 162.662 122.891 161.043L143.129 93.8916C143.609 92.2977 142.7 90.6176 141.103 90.1478Z" stroke="#1D1D1D" stroke-width="4" stroke-linecap="round"/>
</svg>
